<svg xmlns="http://www.w3.org/2000/svg" width="70" height="70"><path style="stroke:none;fill-rule:nonzero;fill:#de4c36;fill-opacity:1" d="M68.68 31.883 38.117 1.32a4.505 4.505 0 0 0-6.375 0l-6.347 6.348 8.05 8.05A5.348 5.348 0 0 1 38.953 17a5.356 5.356 0 0 1 1.274 5.543l7.757 7.758a5.364 5.364 0 0 1 5.543 1.273 5.366 5.366 0 0 1 0 7.586 5.359 5.359 0 0 1-7.586 0 5.362 5.362 0 0 1-1.168-5.836l-7.238-7.234v19.043a5.428 5.428 0 0 1 1.418 1.012 5.366 5.366 0 0 1-7.586 7.59 5.37 5.37 0 0 1 0-7.59 5.426 5.426 0 0 1 1.758-1.168v-19.22a5.375 5.375 0 0 1-1.758-1.171 5.358 5.358 0 0 1-1.152-5.863l-7.938-7.938L1.32 31.738a4.51 4.51 0 0 0 0 6.38L31.883 68.68a4.513 4.513 0 0 0 6.375 0L68.68 38.258a4.505 4.505 0 0 0 0-6.375"/></svg>