<svg xmlns="http://www.w3.org/2000/svg" width="135" height="70" viewBox="0 0 134 70"><path style="stroke:none;fill-rule:nonzero;fill:#00618a;fill-opacity:1" d="M0 63.586h4.414V46.063l6.836 15.28c.805 1.844 1.91 2.505 4.074 2.505 2.164 0 3.227-.653 4.031-2.504l6.836-15.282v17.532h4.414v-17.5c0-1.707-.68-2.535-2.078-2.961-3.355-1.051-5.605-.14-6.62 2.137l-6.708 15.078-6.496-15.086c-.976-2.278-3.27-3.188-6.621-2.133C.68 43.555 0 44.379 0 46.086ZM34.277 49.32h4.41v9.657c-.039.527.168 1.757 2.586 1.793 1.235.023 9.524 0 9.602 0v-11.5h4.422c.02 0-.004 15.683-.004 15.75.023 3.867-4.77 4.707-6.98 4.773H34.37v-2.988h13.965c2.84-.305 2.508-1.723 2.508-2.2v-1.168H41.46c-4.367-.039-7.145-1.953-7.18-4.16-.004-.195.094-9.863-.004-9.957Zm0 0"/><path style="stroke:none;fill-rule:nonzero;fill:#e48e00;fill-opacity:1" d="M58.7 63.586h12.695c1.484 0 2.925-.313 4.074-.852 1.91-.882 2.844-2.078 2.844-3.644v-3.242c0-1.282-1.06-2.477-3.141-3.274-1.102-.426-2.461-.652-3.777-.652h-5.348c-1.781 0-2.633-.543-2.844-1.738-.043-.141-.043-.262-.043-.399v-2.02c0-.113 0-.226.043-.37.211-.91.68-1.165 2.25-1.317.125 0 .297-.027.426-.027h12.605v-2.957H66.09c-1.785 0-2.719.113-3.567.367-2.632.828-3.78 2.144-3.78 4.418v2.59c0 1.992 2.25 3.699 6.027 4.097.425.028.851.059 1.273.059h4.586c.168 0 .34 0 .465.027 1.402.114 1.996.371 2.422.883.261.262.34.512.34.79v2.59c0 .312-.211.71-.637 1.05-.383.344-1.02.57-1.867.625-.172 0-.297.031-.47.031H58.7Zm47.152-5.148c0 3.042 2.25 4.75 6.793 5.093.421.032.847.051 1.273.055h11.504v-2.957h-11.59c-2.59 0-3.566-.656-3.566-2.223V43.098h-4.414Zm-24.723.152V48.043c0-2.684 1.871-4.309 5.574-4.82a8.11 8.11 0 0 1 1.192-.086h8.378c.41 0 .825.027 1.235.086 3.699.511 5.57 2.136 5.57 4.82V58.59c0 2.176-.793 3.34-2.625 4.097l4.348 3.946h-5.125l-3.52-3.192-3.543.227h-4.718c-.81 0-1.66-.117-2.598-.371-2.813-.77-4.168-2.254-4.168-4.707Zm4.766-.262c0 .14.043.285.085.457.262 1.227 1.403 1.91 3.141 1.91h4.012l-3.684-3.343h5.125l3.207 2.914c.59-.317.98-.801 1.11-1.426.043-.14.043-.285.043-.426V48.297c0-.113 0-.262-.043-.399-.262-1.14-1.403-1.796-3.106-1.796H89.13c-1.965 0-3.234.855-3.234 2.195v10.039Zm0 0"/><path style="stroke:none;fill-rule:nonzero;fill:#00618a;fill-opacity:1" d="M129.305 38.188c-2.715-.07-4.785.18-6.559.933-.504.211-1.305.219-1.39.852.277.293.32.726.542 1.086.422.691 1.137 1.613 1.774 2.093.695.532 1.414 1.098 2.16 1.555 1.328.813 2.813 1.281 4.09 2.094.754.48 1.504 1.086 2.238 1.629.363.27.61.687 1.078.855v-.078c-.246-.32-.312-.754-.539-1.086l-1.004-1.008c-.98-1.316-2.222-2.46-3.547-3.414-1.054-.761-3.418-1.793-3.859-3.027l-.078-.078c.75-.086 1.625-.356 2.316-.543 1.16-.313 2.2-.23 3.395-.543l1.621-.465v-.313c-.606-.625-1.035-1.449-1.695-2.015-1.727-1.48-3.614-2.957-5.555-4.192-1.078-.683-2.41-1.128-3.55-1.707-.384-.195-1.06-.296-1.313-.62-.598-.77-.926-1.743-1.387-2.634a100.745 100.745 0 0 1-2.781-5.894c-.582-1.348-.965-2.672-1.696-3.879-3.504-5.793-7.277-9.289-13.117-12.727-1.242-.73-2.738-1.019-4.32-1.394l-2.547-.156c-.52-.215-1.059-.856-1.547-1.164-1.933-1.23-6.898-3.903-8.332-.395-.906 2.219 1.352 4.383 2.16 5.508.567.789 1.293 1.676 1.7 2.562.265.582.312 1.168.539 1.786.562 1.511 1.05 3.171 1.773 4.578.367.71.773 1.457 1.234 2.093.286.391.774.563.852 1.165-.477.671-.504 1.71-.773 2.558-1.208 3.824-.75 8.578 1.003 11.406.54.871 1.805 2.735 3.547 2.02 1.528-.625 1.18-2.559 1.621-4.27.098-.386.04-.668.235-.93v.079L98.98 33.3c1.028 1.664 2.856 3.402 4.399 4.578.8.61 1.441 1.66 2.469 2.016v-.075h-.075c-.203-.316-.515-.445-.773-.699a17.733 17.733 0 0 1-1.777-2.016c-1.407-1.921-2.649-4.02-3.778-6.207-.543-1.046-1.011-2.199-1.468-3.261-.172-.407-.172-1.028-.54-1.239-.5.778-1.234 1.407-1.62 2.329-.618 1.468-.696 3.261-.926 5.12-.133.048-.075.012-.153.075-1.074-.258-1.453-1.371-1.851-2.324-1.012-2.418-1.2-6.301-.309-9.078.227-.72 1.27-2.985.848-3.649-.2-.664-.864-1.05-1.235-1.55a12.266 12.266 0 0 1-1.234-2.176c-.828-1.88-1.215-3.993-2.082-5.895-.418-.91-1.121-1.828-1.7-2.633-.64-.894-1.355-1.554-1.85-2.629-.177-.386-.419-1-.157-1.398a.615.615 0 0 1 .465-.465c.449-.348 1.695.113 2.16.309 1.238.52 2.27 1.011 3.32 1.707.504.332 1.012.984 1.617 1.164h.696c1.086.254 2.304.082 3.316.39 1.793.547 3.403 1.403 4.863 2.328 4.446 2.825 8.082 6.844 10.57 11.645.403.77.575 1.508.927 2.328.71 1.645 1.605 3.348 2.316 4.965.707 1.61 1.39 3.234 2.39 4.578.524.703 2.551 1.082 3.473 1.473.645.273 1.703.558 2.317.93 1.168.706 2.297 1.554 3.394 2.328.547.39 2.23 1.238 2.317 1.94Zm0 0"/><path style="stroke:none;fill-rule:evenodd;fill:#00618a;fill-opacity:1" d="M94.813 8.629a5.382 5.382 0 0 0-1.387.156v.078h.078c.27.555.746.914 1.078 1.395l.773 1.629.075-.078c.48-.336.699-.88.695-1.707-.191-.204-.219-.457-.387-.7-.218-.32-.652-.504-.925-.773Zm0 0"/><path style="stroke:none;fill-rule:evenodd;fill:#e48e00;fill-opacity:1" d="M127.492 60.543c0 1.953 1.535 3.27 3.254 3.27S134 62.495 134 60.542s-1.535-3.27-3.254-3.27-3.254 1.317-3.254 3.27Zm5.778 0c0 1.484-1.125 2.59-2.524 2.59-1.414 0-2.527-1.106-2.527-2.59 0-1.484 1.113-2.59 2.527-2.59 1.395 0 2.524 1.106 2.524 2.59Zm-1.649 1.867h.73l-1.066-1.64c.57-.06 1.004-.34 1.004-1.02 0-.758-.476-1.074-1.394-1.074h-1.45v3.734h.621v-1.613h.582Zm-1.555-2.137V59.2h.723c.371 0 .824.07.824.508 0 .523-.41.566-.879.566Zm0 0"/></svg>