<svg xmlns="http://www.w3.org/2000/svg" width="70" height="70"><defs><radialGradient id="a" gradientUnits="userSpaceOnUse" cx="52.528" cy="-49.92" fx="52.528" fy="-49.92" r="104.617" gradientTransform="matrix(.6691 0 0 .6708 -.147 -1.513)"><stop offset="0" style="stop-color:#20c6b7;stop-opacity:1"/><stop offset="1" style="stop-color:#4d9abf;stop-opacity:1"/></radialGradient></defs><path style="stroke:none;fill-rule:nonzero;fill:url(#a)" d="m50.691 24.293-.023-.012a.093.093 0 0 1-.043-.023.199.199 0 0 1-.05-.172l1.405-8.625 6.61 6.617-6.871 2.93a.162.162 0 0 1-.063.012h-.027c-.008-.008-.016-.016-.035-.032a3.069 3.069 0 0 0-.903-.695Zm9.586-.527 7.067 7.078c1.465 1.468 2.203 2.203 2.469 3.054.039.125.074.25.097.383l-16.887-7.164a.19.19 0 0 0-.027-.012c-.066-.027-.144-.058-.144-.125 0-.07.082-.101.148-.128l.02-.012Zm9.348 12.785c-.367.687-1.078 1.398-2.281 2.605l-7.965 7.977-10.305-2.149-.054-.011c-.09-.016-.188-.032-.188-.114a3.12 3.12 0 0 0-1.195-2.18c-.04-.038-.032-.105-.016-.167 0-.008 0-.016.004-.024l1.938-11.914.007-.039c.008-.094.028-.2.11-.2a3.166 3.166 0 0 0 2.113-1.214c.016-.016.027-.035.047-.047.058-.027.129 0 .191.024l17.59 7.453ZM57.547 48.969 44.445 62.086l2.242-13.8.004-.02.012-.051c.016-.047.067-.063.11-.082l.023-.008c.492-.21.926-.535 1.266-.945.043-.051.097-.102.164-.11a.13.13 0 0 1 .054 0l9.223 1.899ZM41.672 64.863l-1.477 1.477-16.324-23.625a.119.119 0 0 0-.02-.028c-.023-.035-.05-.07-.046-.109 0-.027.023-.055.043-.074l.015-.027c.051-.07.094-.145.137-.223l.04-.063.003-.007c.027-.043.05-.086.094-.11a.22.22 0 0 1 .133 0l18.085 3.735c.051.007.098.027.137.058a.13.13 0 0 1 .035.078c.258.97.95 1.766 1.875 2.149.051.023.028.082.004.14-.011.028-.02.055-.027.082l-2.707 16.547ZM38.59 67.95c-1.09 1.078-1.73 1.653-2.457 1.883a3.704 3.704 0 0 1-2.2 0c-.847-.273-1.581-1.008-3.05-2.477L14.488 50.937l4.282-6.652a.31.31 0 0 1 .074-.086c.047-.031.11-.015.164 0 .984.297 2.039.246 2.988-.152.047-.016.098-.027.137.004.02.02.035.039.05.058L38.59 67.953ZM12.906 49.355l-3.758-3.77 7.426-3.17a.157.157 0 0 1 .059-.013c.062 0 .101.063.133.118.074.117.152.226.238.335l.023.032c.02.031.008.062-.015.09l-4.102 6.378Zm-5.422-5.433-4.757-4.766c-.813-.812-1.399-1.398-1.805-1.906l14.465 3.008c.02.004.035.004.054.008.09.015.188.03.188.117 0 .09-.106.133-.2.168l-.038.015ZM.09 34.8c.015-.305.07-.61.164-.903.27-.851 1-1.586 2.473-3.054l6.086-6.098c2.804 4.074 5.617 8.14 8.433 12.207.05.067.106.137.047.192-.266.296-.531.617-.719.964a.259.259 0 0 1-.09.114c-.023.015-.05.007-.078.004h-.004ZM10.44 23.113l8.184-8.199c.773.336 3.574 1.524 6.078 2.582 1.895.8 3.625 1.531 4.168 1.77.055.023.102.043.125.097.016.035.008.075 0 .11a3.67 3.67 0 0 0 .957 3.34c.055.054 0 .132-.05.199l-.024.039-8.313 12.894c-.023.035-.043.067-.078.09-.043.028-.105.016-.156.004a4.05 4.05 0 0 0-.992-.137c-.297 0-.621.055-.95.118h-.003c-.035.003-.07.011-.098-.012a.471.471 0 0 1-.082-.094Zm9.844-9.855L30.883 2.645c1.469-1.47 2.203-2.208 3.05-2.477a3.704 3.704 0 0 1 2.2 0c.851.27 1.586 1.008 3.05 2.477l2.297 2.3-7.535 11.692a.325.325 0 0 1-.078.086c-.043.03-.11.02-.164 0a3.82 3.82 0 0 0-3.5.675c-.047.051-.121.024-.183-.003-.985-.43-8.641-3.672-9.735-4.137Zm22.797-6.711 6.961 6.969-1.676 10.402v.027c-.004.024-.008.047-.015.07-.02.036-.055.044-.094.055-.356.11-.696.278-.996.5-.016.008-.028.02-.04.032-.019.02-.038.039-.07.043a.133.133 0 0 1-.078-.012l-10.61-4.512-.019-.012c-.066-.027-.148-.058-.148-.129a4.03 4.03 0 0 0-.563-1.668c-.05-.085-.109-.171-.066-.257Zm-7.168 15.71 9.941 4.22c.055.023.118.046.141.105a.223.223 0 0 1 0 .102 2.349 2.349 0 0 0-.055.48v.281c0 .07-.07.098-.136.125l-.02.008c-1.578.672-22.113 9.445-22.144 9.445-.032 0-.067 0-.094-.03-.055-.056 0-.134.047-.204.008-.012.02-.023.027-.035l8.168-12.672.016-.02c.047-.078.101-.164.191-.164l.082.012c.184.027.348.05.516.05a3.69 3.69 0 0 0 3.078-1.636.393.393 0 0 1 .062-.074c.051-.035.125-.016.18.008Zm-11.387 16.77 22.387-9.562s.031 0 .063.031c.125.121.226.203.328.281l.05.032c.043.027.09.054.094.101 0 .02 0 .031-.004.047l-1.918 11.797-.007.047c-.012.094-.024.195-.11.195a3.149 3.149 0 0 0-2.504 1.547l-.011.016c-.024.043-.047.082-.09.101-.04.02-.086.012-.13.004l-17.85-3.687c-.016-.004-.278-.95-.298-.95Zm0 0"/></svg>