<svg xmlns="http://www.w3.org/2000/svg" width="68" height="70"><path style="stroke:none;fill-rule:nonzero;fill:#000;fill-opacity:1" d="M67.738 41.914c-.41-1.234-1.476-2.094-2.86-2.297-.651-.097-1.398-.058-2.28.125-1.535.317-2.68.438-3.512.461 3.144-5.3 5.703-11.34 7.172-17.031 2.383-9.195 1.11-13.387-.375-15.281C61.949 2.875 56.21.18 49.289.098 45.594.055 42.352.78 40.66 1.305a31.989 31.989 0 0 0-5.043-.461c-3.332-.055-6.273.672-8.785 2.16a40.317 40.317 0 0 0-6.207-1.555C14.559.457 9.668 1.23 6.09 3.754 1.758 6.804-.25 12.114.12 19.524c.121 2.351 1.438 9.511 3.516 16.296 1.191 3.903 2.465 7.145 3.781 9.633 1.867 3.531 3.863 5.61 6.105 6.356 1.258.418 3.54.71 5.942-1.286.305.368.71.735 1.25 1.075.683.43 1.52.78 2.355.992 3.012.75 5.836.562 8.242-.492.016.43.028.836.036 1.187a98.3 98.3 0 0 0 .054 1.66c.141 3.543.383 6.301 1.098 8.23.043.106.094.27.148.438.36 1.094.957 2.922 2.477 4.352 1.574 1.484 3.477 1.937 5.219 1.937.875 0 1.71-.113 2.441-.27 2.61-.558 5.57-1.405 7.715-4.452 2.027-2.88 3.012-7.215 3.188-14.051l.066-.55.043-.364.476.043.125.008c2.657.12 5.903-.442 7.899-1.368 1.578-.73 6.629-3.39 5.441-6.984"/><path style="stroke:none;fill-rule:nonzero;fill:#336791;fill-opacity:1" d="M63.195 42.613c-7.902 1.625-8.445-1.043-8.445-1.043 8.34-12.355 11.828-28.035 8.82-31.87C55.36-.77 41.152 4.18 40.914 4.308l-.078.011c-1.559-.32-3.305-.515-5.27-.547-3.574-.058-6.285.938-8.343 2.493 0 0-25.348-10.422-24.168 13.109.25 5.008 7.187 37.879 15.465 27.95 3.023-3.63 5.945-6.7 5.945-6.7 1.453.96 3.191 1.453 5.012 1.277l.14-.12c-.043.452-.023.89.059 1.413-2.133 2.38-1.508 2.797-5.77 3.672-4.312.887-1.777 2.465-.125 2.88 2.008.5 6.645 1.206 9.782-3.173l-.126.5c.833.668 1.422 4.344 1.32 7.676-.097 3.332-.16 5.621.497 7.406.66 1.79 1.312 5.809 6.918 4.61 4.68-1 7.105-3.594 7.445-7.922.238-3.078.781-2.625.813-5.375l.437-1.301c.5-4.172.078-5.52 2.961-4.89l.703.058c2.121.098 4.899-.34 6.532-1.098 3.511-1.625 5.593-4.34 2.128-3.625h.004"/><path style="stroke:none;fill-rule:nonzero;fill:#fff;fill-opacity:1" d="M28.707 21.613c-.71-.097-1.355-.008-1.684.239a.62.62 0 0 0-.253.41c-.043.293.164.617.293.785.355.473.878.797 1.394.871.074.008.148.016.223.016.863 0 1.648-.672 1.715-1.164.085-.622-.813-1.036-1.688-1.157m23.582.02c-.066-.485-.93-.621-1.754-.508-.82.113-1.613.484-1.547.969.051.379.739 1.023 1.547 1.023.067 0 .137-.004.207-.012.54-.078.938-.418 1.125-.617.29-.3.453-.636.422-.855"/><path style="stroke:none;fill-rule:nonzero;fill:#fff;fill-opacity:1" d="M65.824 42.426c-.304-.91-1.273-1.2-2.883-.867-4.78.984-6.496.3-7.058-.114 3.719-5.652 6.777-12.484 8.426-18.86.78-3.019 1.214-5.823 1.25-8.108.039-2.508-.391-4.352-1.274-5.48-3.558-4.54-8.785-6.974-15.11-7.044-4.347-.047-8.023 1.063-8.734 1.375a21.763 21.763 0 0 0-4.914-.629c-3.265-.054-6.086.727-8.422 2.317a37.888 37.888 0 0 0-6.843-1.79c-5.543-.89-9.95-.218-13.094 2.004-3.75 2.657-5.484 7.399-5.148 14.098.113 2.254 1.402 9.184 3.43 15.824 2.675 8.743 5.577 13.688 8.636 14.707.355.118.77.203 1.226.203 1.114 0 2.481-.503 3.903-2.21a141.73 141.73 0 0 1 5.383-6.079 8.671 8.671 0 0 0 3.87 1.04l.012.105c-.234.277-.46.559-.683.844-.938 1.183-1.133 1.43-4.14 2.05-.86.176-3.134.645-3.169 2.235-.035 1.742 2.692 2.473 3 2.547 1.082.273 2.125.406 3.121.406 2.418 0 4.543-.793 6.246-2.328-.054 6.2.208 12.308.954 14.172.609 1.523 2.101 5.246 6.816 5.246.691 0 1.453-.082 2.29-.258 4.92-1.055 7.054-3.223 7.882-8.008.441-2.558 1.203-8.664 1.558-11.941.754.234 1.723.344 2.77.344 2.188 0 4.71-.465 6.293-1.2 1.777-.82 4.984-2.843 4.406-4.601ZM54.105 20.293c-.015.969-.148 1.848-.289 2.762-.152.984-.308 2.004-.347 3.242-.04 1.203.11 2.453.254 3.664.297 2.445.597 4.96-.57 7.445a9.892 9.892 0 0 1-.52-1.062c-.145-.352-.461-.918-.899-1.7-1.699-3.042-5.68-10.167-3.64-13.074.605-.867 2.148-1.754 6.011-1.277ZM49.422 3.914c5.664.125 10.148 2.238 13.32 6.29 2.434 3.1-.246 17.23-8.004 29.417a19.703 19.703 0 0 1-.234-.297l-.102-.12c2.008-3.306 1.614-6.575 1.266-9.477-.145-1.188-.277-2.313-.246-3.368.039-1.12.183-2.078.328-3.007.176-1.141.355-2.325.309-3.72.035-.148.05-.32.03-.527-.124-1.335-1.655-5.34-4.773-8.96-1.707-1.985-4.195-4.204-7.593-5.7 1.46-.3 3.46-.582 5.699-.53ZM17.71 46.602c-1.566 1.882-2.648 1.523-3.008 1.402-2.316-.77-5.008-5.664-7.379-13.422-2.054-6.71-3.254-13.46-3.347-15.355-.301-5.985 1.152-10.157 4.32-12.399 5.152-3.648 13.629-1.465 17.031-.355-.047.047-.098.093-.144.14-5.59 5.633-5.457 15.258-5.442 15.844-.004.227.016.55.043.992.098 1.617.274 4.63-.203 8.04-.445 3.171.535 6.273 2.688 8.515.218.23.449.445.695.652-.961 1.024-3.04 3.29-5.254 5.946Zm5.969-7.95c-1.73-1.804-2.52-4.316-2.16-6.89.507-3.606.32-6.742.218-8.43-.011-.234-.027-.441-.031-.605.816-.723 4.598-2.747 7.297-2.13 1.23.282 1.98 1.118 2.293 2.56 1.613 7.448.21 10.554-.914 13.05-.23.516-.45 1-.637 1.504l-.144.387c-.368.984-.711 1.898-.922 2.765-1.844-.008-3.637-.793-5-2.21Zm.285 10.047a4.37 4.37 0 0 1-1.309-.558c.239-.114.66-.266 1.395-.414 3.543-.73 4.09-1.243 5.285-2.758a23.42 23.42 0 0 1 1.012-1.219c.64-.715.933-.594 1.465-.375.433.176.851.715 1.019 1.309.082.28.172.812-.125 1.226-2.492 3.488-6.133 3.442-8.742 2.79Zm18.539 17.219c-4.332.93-5.867-1.277-6.879-3.8-.652-1.63-.973-8.977-.746-17.087a.917.917 0 0 0-.043-.312 4.117 4.117 0 0 0-.121-.57c-.336-1.184-1.164-2.169-2.153-2.579-.394-.164-1.113-.46-1.98-.242.184-.758.504-1.617.852-2.547l.148-.39c.164-.442.367-.899.586-1.383 1.18-2.61 2.789-6.188 1.039-14.266-.652-3.027-2.844-4.504-6.164-4.16-1.988.207-3.809 1.008-4.715 1.465-.195.101-.375.195-.543.289.254-3.05 1.211-8.75 4.793-12.352 2.254-2.27 5.258-3.39 8.918-3.332 7.207.118 11.832 3.813 14.441 6.887 2.247 2.652 3.465 5.324 3.95 6.766-3.653-.371-6.137.347-7.399 2.144-2.738 3.91 1.5 11.5 3.54 15.149.37.668.695 1.246.796 1.492.664 1.601 1.524 2.676 2.149 3.457.191.238.379.473.52.676-1.106.316-3.095 1.054-2.911 4.73-.148 1.848-1.187 10.484-1.715 13.54-.695 4.03-2.183 5.53-6.363 6.429Zm18.09-20.66c-1.13.523-3.024.918-4.824 1-1.985.094-2.997-.223-3.235-.414-.113-2.293.742-2.532 1.649-2.785.14-.04.277-.079.414-.125.082.066.172.132.273.199 1.598 1.05 4.445 1.168 8.465.336l.047-.008c-.543.508-1.473 1.187-2.79 1.797Zm0 0"/></svg>