<svg xmlns="http://www.w3.org/2000/svg" width="73" height="70"><path style="stroke:none;fill-rule:nonzero;fill:#764abc;fill-opacity:1" d="M50.582 48.691c2.691-.277 4.738-2.617 4.645-5.418-.094-2.804-2.414-5.046-5.204-5.046h-.183c-2.883.093-5.11 2.523-5.02 5.418.094 1.402.653 2.617 1.489 3.46-3.16 6.262-7.989 10.84-15.235 14.672-4.926 2.618-10.035 3.551-15.144 2.895-4.18-.559-7.43-2.43-9.473-5.512-2.973-4.578-3.254-9.531-.746-14.484 1.766-3.555 4.555-6.168 6.32-7.477-.375-1.215-.93-3.273-1.21-4.765-13.47 9.812-12.075 23.082-7.989 29.343 3.066 4.672 9.29 7.57 16.164 7.57 1.86 0 3.715-.187 5.574-.656 11.89-2.336 20.903-9.437 26.012-20ZM66.93 37.105c-7.059-8.32-17.465-12.898-29.356-12.898H36.09a5.107 5.107 0 0 0-4.55-2.805h-.188c-2.88.094-5.11 2.524-5.016 5.422.094 2.805 2.414 5.047 5.203 5.047h.184a5.232 5.232 0 0 0 4.55-3.18h1.676c7.059 0 13.746 2.059 19.785 6.079 4.645 3.082 7.989 7.101 9.848 11.96 1.578 3.926 1.484 7.758-.187 11.028-2.602 4.953-6.965 7.664-12.727 7.664-3.715 0-7.246-1.121-9.102-1.965-1.023.938-2.882 2.43-4.183 3.367 3.996 1.867 8.082 2.895 11.984 2.895 8.918 0 15.516-4.953 18.024-9.906 2.691-5.418 2.507-14.766-4.461-22.708ZM19.738 50.281c.094 2.805 2.418 5.047 5.203 5.047h.188c2.879-.094 5.11-2.523 5.016-5.422-.094-2.8-2.415-5.047-5.204-5.047h-.183c-.188 0-.465 0-.653.094-3.808-6.355-5.386-13.27-4.828-20.746.371-5.605 2.227-10.465 5.48-14.484 2.692-3.457 7.895-5.141 11.427-5.235C46.03 4.301 50.21 16.637 50.488 21.59c1.207.281 3.25.933 4.645 1.402C54.02 7.852 44.73.004 35.813.004c-8.364 0-16.075 6.074-19.137 15.047-4.274 11.96-1.488 23.457 3.715 32.52-.465.656-.743 1.683-.653 2.71Zm0 0"/></svg>