<svg xmlns="http://www.w3.org/2000/svg" width="93" height="70"><path style="stroke:none;fill-rule:nonzero;fill:#cf649a;fill-opacity:1" d="M80.031 40.215c-3.25.015-6.066.8-8.43 1.969-.87-1.735-1.742-3.246-1.886-4.375-.164-1.313-.363-2.118-.164-3.684.199-1.566 1.105-3.793 1.105-3.973-.015-.164-.199-.968-2.07-.984-1.871-.02-3.484.363-3.668.855-.18.493-.543 1.622-.781 2.79-.328 1.714-3.742 7.785-5.684 10.972-.637-1.238-1.183-2.332-1.289-3.207-.164-1.312-.363-2.113-.164-3.683.2-1.567 1.105-3.79 1.105-3.973-.015-.164-.199-.965-2.07-.984-1.87-.02-3.488.363-3.668.855-.183.492-.383 1.66-.781 2.789-.383 1.133-4.922 11.266-6.102 13.91a59.435 59.435 0 0 1-1.507 3.153c-.383.73-.02.054-.055.128-.328.622-.512.965-.512.965v.02c-.254.457-.523.894-.652.894-.09 0-.274-1.222.035-2.898.672-3.52 2.309-9.008 2.289-9.207 0-.09.309-1.059-1.05-1.55-1.329-.493-1.802.327-1.91.327-.11 0-.2.293-.2.293s1.473-6.18-2.817-6.18c-2.687 0-6.39 2.934-8.226 5.614-1.164.64-3.633 1.988-6.25 3.43-.996.546-2.031 1.128-3.016 1.656l-.199-.219c-5.195-5.559-14.8-9.496-14.402-16.969.144-2.719 1.09-9.883 18.453-18.558 14.223-7.11 25.613-5.16 27.594-.82 2.812 6.199-6.086 17.718-20.871 19.378-5.633.637-8.594-1.55-9.336-2.37-.782-.856-.891-.895-1.184-.731-.469.257-.18 1.023 0 1.476.437 1.149 2.254 3.192 5.344 4.211 2.703.895 9.316 1.387 17.308-1.71 8.953-3.485 15.95-13.145 13.895-21.22C56.129.383 42.539-2.316 29.699 2.262c-7.648 2.734-15.93 7-21.89 12.593C.727 21.492-.398 27.29.074 29.695c1.653 8.586 13.442 14.184 18.164 18.32-.238.13-.457.255-.656.364-2.36 1.168-11.352 5.89-13.605 10.883-2.543 5.652.402 9.718 2.363 10.265 6.066 1.696 12.277-1.351 15.637-6.363 3.343-5.012 2.945-11.52 1.402-14.492l-.055-.11 1.852-1.093c1.199-.711 2.379-1.367 3.414-1.934-.582 1.586-1 3.465-1.215 6.2-.258 3.206 1.05 7.363 2.777 9.003.762.711 1.672.73 2.235.73 1.996 0 2.906-1.66 3.906-3.644 1.234-2.426 2.324-5.234 2.324-5.234s-1.363 7.601 2.36 7.601c1.363 0 2.726-1.765 3.343-2.68v.02s.035-.054.11-.183c.074-.114.148-.227.218-.344v-.04c.543-.944 1.762-3.116 3.579-6.706 2.343-4.63 4.593-10.426 4.593-10.426s.22 1.422.89 3.754c.4 1.387 1.274 2.898 1.946 4.375-.547.766-.875 1.203-.875 1.203l.02.02a53.42 53.42 0 0 1-1.434 1.82c-1.855 2.226-4.07 4.758-4.36 5.488-.347.856-.273 1.496.4 2.004.491.367 1.363.438 2.288.367 1.672-.11 2.832-.531 3.414-.785.91-.328 1.946-.82 2.942-1.55 1.816-1.348 2.926-3.262 2.816-5.813-.054-1.406-.508-2.79-1.07-4.102.164-.238.328-.476.488-.73 2.871-4.211 5.086-8.84 5.086-8.84s.219 1.422.89 3.754c.348 1.183 1.036 2.48 1.653 3.754-2.687 2.207-4.375 4.758-4.957 6.437-1.07 3.098-.238 4.5 1.344 4.828.707.149 1.726-.18 2.488-.507.945-.313 2.09-.84 3.14-1.625 1.817-1.348 3.563-3.227 3.473-5.758-.054-1.168-.363-2.317-.78-3.41 2.288-.95 5.25-1.496 9.007-1.04 8.082.95 9.683 6.016 9.375 8.13-.313 2.117-2 3.28-2.563 3.648-.562.344-.746.473-.691.726.074.387.328.368.816.293.672-.109 4.25-1.73 4.399-5.632.215-5.012-4.524-10.48-12.934-10.426Zm-62.34 21.09c-2.668 2.933-6.43 4.047-8.027 3.097-1.726-1-1.055-5.32 2.234-8.437 1.997-1.899 4.594-3.649 6.301-4.723.383-.238.965-.582 1.653-1.004.109-.07.183-.11.183-.11.125-.07.274-.163.418-.253 1.215 4.45.055 8.348-2.762 11.43ZM37.22 47.98c-.926 2.278-2.89 8.13-4.07 7.801-1.016-.273-1.633-4.703-.2-9.078.727-2.207 2.27-4.832 3.18-5.851 1.469-1.641 3.07-2.188 3.469-1.512.472.875-1.797 7.219-2.38 8.64Zm16.11 7.727c-.4.203-.763.348-.927.238-.125-.074.164-.347.164-.347s2.016-2.168 2.817-3.172c.453-.582 1-1.258 1.578-2.024v.22c0 2.624-2.504 4.374-3.633 5.085Zm12.425-2.844c-.29-.218-.254-.89.726-3.008.383-.835 1.254-2.242 2.762-3.57.18.547.29 1.074.274 1.567-.02 3.28-2.344 4.503-3.762 5.011Zm0 0"/></svg>