<svg xmlns="http://www.w3.org/2000/svg" width="70" height="70"><path style="stroke:none;fill-rule:nonzero;fill:#fff;fill-opacity:1" d="m35 0 30.934 17.5v35L35 70 4.066 52.5v-35Zm0 0"/><path style="stroke:none;fill-rule:nonzero;fill:#8ed6fb;fill-opacity:1" d="M60.41 51.293 36.02 65.09V54.344l15.195-8.36Zm1.668-1.512V20.93l-8.926 5.152v18.543ZM9.492 51.293 33.88 65.09V54.344l-15.195-8.36Zm-1.668-1.512V20.93l8.922 5.152v18.543Zm1.043-30.718L33.88 4.91V15.3l-16.024 8.813-.12.07Zm52.168 0L36.02 4.91V15.3l16.027 8.813.121.07Zm0 0"/><path style="stroke:none;fill-rule:nonzero;fill:#1c78c0;fill-opacity:1" d="m33.879 51.898-14.992-8.242V27.324l14.992 8.656v15.918m2.14 0 14.993-8.242V27.324L36.02 35.98v15.918M19.902 25.434l15.051-8.278 15.05 8.278-15.05 8.691-15.05-8.691"/></svg>